<svg viewBox="0 0 24 24" fill="none" xmlns="http://www.w3.org/2000/svg">
<path fill-rule="evenodd" clip-rule="evenodd" d="M11.3857 1.21138C11.7469 0.930516 12.2531 0.930516 12.6143 1.21138L21.6143 8.21138C21.8575 8.40085 22 8.69209 22 9.00044V20.0004C21.9999 20.7959 21.6836 21.559 21.1211 22.1215C20.5585 22.684 19.7955 23.0004 19 23.0004H15.5V13.0004C15.5 12.4482 15.1082 12.0005 14.625 12.0004H9.375C8.89182 12.0005 8.5 12.4482 8.5 13.0004V23.0004H5C4.20446 23.0004 3.44149 22.684 2.87891 22.1215C2.31641 21.559 2.00013 20.7959 2 20.0004V9.00044C2 8.69209 2.1425 8.40085 2.38574 8.21138L11.3857 1.21138Z" fill="currentColor"/>
</svg>
