<svg viewBox="0 0 24 24" fill="none" xmlns="http://www.w3.org/2000/svg">
<path d="M10.1582 2.16602C11.2415 1.3235 12.7585 1.3235 13.8418 2.16602L20.8418 7.61035C21.5724 8.17869 22 9.05285 22 9.97852V20C22 20.7956 21.6836 21.5585 21.1211 22.1211C20.5585 22.6837 19.7956 23 19 23H16.9C16.1268 23 15.5 22.3732 15.5 21.6V13C15.5 12.4478 15.1082 12.0001 14.625 12H9.375C8.89182 12.0001 8.5 12.4478 8.5 13V21.6C8.5 22.3732 7.8732 23 7.1 23H5C4.20436 23 3.44151 22.6837 2.87891 22.1211C2.31636 21.5585 2.00002 20.7956 2 20V9.97852C2.00004 9.05285 2.42756 8.17869 3.1582 7.61035L10.1582 2.16602Z" fill="currentColor"/>
</svg>
