<svg viewBox="0 0 24 24" fill="none" xmlns="http://www.w3.org/2000/svg">
<path d="M17 8.66663C18.3807 8.66663 19.5 7.54734 19.5 6.16663C19.5 4.78591 18.3807 3.66663 17 3.66663C15.6193 3.66663 14.5 4.78591 14.5 6.16663C14.5 7.54734 15.6193 8.66663 17 8.66663Z" stroke="currentColor" stroke-width="1.8" stroke-linecap="round" stroke-linejoin="round"/>
<path d="M7 14.5C8.38071 14.5 9.5 13.3807 9.5 12C9.5 10.6193 8.38071 9.5 7 9.5C5.61929 9.5 4.5 10.6193 4.5 12C4.5 13.3807 5.61929 14.5 7 14.5Z" stroke="currentColor" stroke-width="1.8" stroke-linecap="round" stroke-linejoin="round"/>
<path d="M17 20.3334C18.3807 20.3334 19.5 19.2141 19.5 17.8334C19.5 16.4527 18.3807 15.3334 17 15.3334C15.6193 15.3334 14.5 16.4527 14.5 17.8334C14.5 19.2141 15.6193 20.3334 17 20.3334Z" stroke="currentColor" stroke-width="1.8" stroke-linecap="round" stroke-linejoin="round"/>
<path d="M9.1582 13.2582L14.8499 16.5748" stroke="currentColor" stroke-width="1.66667" stroke-linecap="round" stroke-linejoin="round"/>
<path d="M14.8415 7.4248L9.1582 10.7415" stroke="currentColor" stroke-width="1.8" stroke-linecap="round" stroke-linejoin="round"/>
</svg>
