<svg viewBox="0 0 24 24" fill="none" xmlns="http://www.w3.org/2000/svg">
<path d="M11.7424 14C16.4925 14 18.7119 16.2881 19.7171 18.0512C20.3256 19.1186 19.5975 20.2933 18.3858 20.4971C16.8298 20.7588 14.509 21.0331 11.7424 20.9967C9.01023 20.9609 6.85766 20.6982 5.43842 20.4594C4.30428 20.2685 3.57575 19.207 4.0592 18.1635C4.88226 16.3869 6.89084 14 11.7424 14Z" stroke="currentColor" stroke-width="2"/>
<path d="M12 11C14.2091 11 16 9.20914 16 7C16 4.79086 14.2091 3 12 3C9.79086 3 8 4.79086 8 7C8 9.20914 9.79086 11 12 11Z" stroke="currentColor" stroke-width="2" stroke-linecap="round" stroke-linejoin="round"/>
</svg>
