<svg viewBox="0 0 24 24" fill="none" xmlns="http://www.w3.org/2000/svg">
<path d="M11.7424 14C17.6354 14 19.6335 17.5216 20.25 19.1936C20.4272 19.6739 20.1263 20.1554 19.6255 20.2621C18.2576 20.5535 15.3867 21.0446 11.7424 20.9967C8.13098 20.9494 5.53225 20.5057 4.30121 20.2446C3.83244 20.1452 3.5344 19.711 3.66122 19.2489C4.11354 17.6008 5.7836 14 11.7424 14Z" fill="currentColor" stroke="currentColor" stroke-width="2"/>
<path d="M12 11C14.2091 11 16 9.20914 16 7C16 4.79086 14.2091 3 12 3C9.79086 3 8 4.79086 8 7C8 9.20914 9.79086 11 12 11Z" fill="currentColor" stroke="currentColor" stroke-width="2" stroke-linecap="round" stroke-linejoin="round"/>
</svg>
