<svg width="18" height="18" viewBox="0 0 18 18" fill="none" xmlns="http://www.w3.org/2000/svg">
<rect width="18" height="18" rx="9" fill="#5A5CD1"/>
<path d="M11.2844 7.51C11.0311 7.26333 10.7311 7.07 10.3844 6.93C10.0444 6.79 9.70441 6.72 9.36441 6.72C9.05108 6.72 8.76108 6.78 8.49441 6.9C8.22775 7.01333 7.99441 7.17333 7.79441 7.38C7.59441 7.58667 7.43775 7.82667 7.32441 8.1C7.21775 8.37333 7.16441 8.67 7.16441 8.99C7.16441 9.31 7.22108 9.61 7.33441 9.89C7.44775 10.1633 7.60441 10.4067 7.80441 10.62C8.00441 10.8267 8.23775 10.99 8.50441 11.11C8.77108 11.2233 9.06108 11.28 9.37441 11.28C9.66108 11.28 9.97108 11.2167 10.3044 11.09C10.6377 10.9633 10.9411 10.7933 11.2144 10.58L12.1144 11.69C11.8677 11.8633 11.5844 12.02 11.2644 12.16C10.9511 12.3 10.6211 12.41 10.2744 12.49C9.92775 12.57 9.59441 12.61 9.27441 12.61C8.74108 12.61 8.24775 12.52 7.79441 12.34C7.34775 12.1533 6.95441 11.8967 6.61441 11.57C6.27441 11.2433 6.01108 10.86 5.82441 10.42C5.63775 9.97333 5.54441 9.49667 5.54441 8.99C5.54441 8.48333 5.64108 8.01333 5.83441 7.58C6.02775 7.14 6.29441 6.75667 6.63441 6.43C6.98108 6.10333 7.38775 5.85 7.85441 5.67C8.32108 5.49 8.82441 5.4 9.36441 5.4C9.71108 5.4 10.0544 5.44333 10.3944 5.53C10.7344 5.61 11.0577 5.72667 11.3644 5.88C11.6711 6.03333 11.9411 6.21667 12.1744 6.43L11.2844 7.51ZM10.7444 8.98H12.1144V11.69H10.7444V8.98Z" fill="white"/>
<path d="M11.2844 7.51L11.2449 7.55059L11.289 7.59353L11.3281 7.54603L11.2844 7.51ZM10.3844 6.93L10.3628 6.98239L10.3632 6.98253L10.3844 6.93ZM8.49441 6.9L8.51658 6.95215L8.51766 6.95167L8.49441 6.9ZM7.79441 7.38L7.83513 7.4194V7.4194L7.79441 7.38ZM7.32441 8.1L7.27207 8.07829L7.27164 8.0794L7.32441 8.1ZM7.33441 9.89L7.2819 9.91126L7.28208 9.9117L7.33441 9.89ZM7.80441 10.62L7.76308 10.6588L7.7637 10.6594L7.80441 10.62ZM8.50441 11.11L8.48116 11.1617L8.48225 11.1621L8.50441 11.11ZM10.3044 11.09L10.3245 11.143V11.143L10.3044 11.09ZM11.2144 10.58L11.2584 10.5443L11.2234 10.5011L11.1796 10.5353L11.2144 10.58ZM12.1144 11.69L12.147 11.7364L12.1966 11.7015L12.1584 11.6543L12.1144 11.69ZM11.2644 12.16L11.2417 12.1081L11.2413 12.1083L11.2644 12.16ZM10.2744 12.49L10.2617 12.4348V12.4348L10.2744 12.49ZM7.79441 12.34L7.77256 12.3923L7.77351 12.3927L7.79441 12.34ZM6.61441 11.57L6.57516 11.6109V11.6109L6.61441 11.57ZM5.82441 10.42L5.77214 10.4418L5.77226 10.4421L5.82441 10.42ZM5.83441 7.58L5.88615 7.60308L5.88628 7.60279L5.83441 7.58ZM6.63441 6.43L6.59556 6.38876L6.59516 6.38914L6.63441 6.43ZM7.85441 5.67L7.8748 5.72286V5.72286L7.85441 5.67ZM10.3944 5.53L10.3804 5.58491L10.3814 5.58515L10.3944 5.53ZM12.1744 6.43L12.2181 6.46603L12.2524 6.4245L12.2126 6.38819L12.1744 6.43ZM10.7444 8.98V8.92334H10.6878V8.98H10.7444ZM12.1144 8.98H12.1711V8.92334H12.1144V8.98ZM12.1144 11.69V11.7467H12.1711V11.69H12.1144ZM10.7444 11.69H10.6878V11.7467H10.7444V11.69ZM11.2844 7.51L11.3239 7.46941C11.065 7.21732 10.7587 7.02006 10.4056 6.87747L10.3844 6.93L10.3632 6.98253C10.7034 7.11994 10.9971 7.30935 11.2449 7.55059L11.2844 7.51ZM10.3844 6.93L10.406 6.87761C10.0597 6.73502 9.7124 6.66334 9.36441 6.66334V6.72V6.77666C9.69643 6.77666 10.0291 6.84497 10.3628 6.98239L10.3844 6.93ZM9.36441 6.72V6.66334C9.04365 6.66334 8.74565 6.72481 8.47116 6.84833L8.49441 6.9L8.51766 6.95167C8.77651 6.83519 9.05851 6.77666 9.36441 6.77666V6.72ZM8.49441 6.9L8.47225 6.84786C8.19867 6.96413 7.95901 7.12845 7.7537 7.3406L7.79441 7.38L7.83513 7.4194C8.02982 7.21822 8.25683 7.06253 8.51657 6.95214L8.49441 6.9ZM7.79441 7.38L7.7537 7.3406C7.54861 7.55253 7.38806 7.79858 7.27208 8.0783L7.32441 8.1L7.37675 8.1217C7.48744 7.85475 7.64022 7.6208 7.83513 7.4194L7.79441 7.38ZM7.32441 8.1L7.27164 8.0794C7.16218 8.35987 7.10776 8.66359 7.10776 8.99H7.16441H7.22107C7.22107 8.67641 7.27331 8.38679 7.37719 8.1206L7.32441 8.1ZM7.16441 8.99H7.10776C7.10776 9.31685 7.16567 9.62411 7.2819 9.91126L7.33441 9.89L7.38693 9.86874C7.27649 9.59589 7.22107 9.30315 7.22107 8.99H7.16441ZM7.33441 9.89L7.28208 9.9117C7.39799 10.1913 7.55836 10.4404 7.76308 10.6587L7.80441 10.62L7.84575 10.5813C7.65047 10.373 7.4975 10.1354 7.38675 9.8683L7.33441 9.89ZM7.80441 10.62L7.7637 10.6594C7.96878 10.8713 8.20806 11.0388 8.48116 11.1617L8.50441 11.11L8.52766 11.0583C8.26743 10.9412 8.04005 10.782 7.84513 10.5806L7.80441 10.62ZM8.50441 11.11L8.48225 11.1621C8.75648 11.2787 9.05409 11.3367 9.37441 11.3367V11.28V11.2233C9.06807 11.2233 8.78568 11.168 8.52657 11.0579L8.50441 11.11ZM9.37441 11.28V11.3367C9.66941 11.3367 9.98629 11.2715 10.3245 11.143L10.3044 11.09L10.2843 11.037C9.95587 11.1618 9.65275 11.2233 9.37441 11.2233V11.28ZM10.3044 11.09L10.3245 11.143C10.663 11.0143 10.9713 10.8416 11.2493 10.6247L11.2144 10.58L11.1796 10.5353C10.9108 10.7451 10.6125 10.9123 10.2843 11.037L10.3044 11.09ZM11.2144 10.58L11.1704 10.6157L12.0704 11.7257L12.1144 11.69L12.1584 11.6543L11.2584 10.5443L11.2144 10.58ZM12.1144 11.69L12.0818 11.6436C11.8387 11.8145 11.5588 11.9694 11.2417 12.1081L11.2644 12.16L11.2871 12.2119C11.6101 12.0706 11.8968 11.9122 12.147 11.7364L12.1144 11.69ZM11.2644 12.16L11.2413 12.1083C10.9314 12.2467 10.6049 12.3556 10.2617 12.4348L10.2744 12.49L10.2872 12.5452C10.6373 12.4644 10.9707 12.3533 11.2875 12.2117L11.2644 12.16ZM10.2744 12.49L10.2617 12.4348C9.91873 12.5139 9.58968 12.5533 9.27441 12.5533V12.61V12.6667C9.59915 12.6667 9.93677 12.6261 10.2872 12.5452L10.2744 12.49ZM9.27441 12.61V12.5533C8.74757 12.5533 8.2614 12.4645 7.81532 12.2873L7.79441 12.34L7.77351 12.3927C8.23409 12.5755 8.73459 12.6667 9.27441 12.6667V12.61ZM7.79441 12.34L7.81626 12.2877C7.37588 12.1037 6.98848 11.8508 6.65367 11.5291L6.61441 11.57L6.57516 11.6109C6.92034 11.9425 7.31962 12.203 7.77257 12.3923L7.79441 12.34ZM6.61441 11.57L6.65367 11.5291C6.31927 11.2079 6.06029 10.8309 5.87657 10.3979L5.82441 10.42L5.77226 10.4421C5.96187 10.8891 6.22956 11.2788 6.57516 11.6109L6.61441 11.57ZM5.82441 10.42L5.87669 10.3982C5.69305 9.95873 5.60107 9.48952 5.60107 8.99H5.54441H5.48776C5.48776 9.50381 5.58245 9.98794 5.77214 10.4418L5.82441 10.42ZM5.54441 8.99H5.60107C5.60107 8.49074 5.69628 8.02867 5.88615 7.60308L5.83441 7.58L5.78267 7.55692C5.58588 7.998 5.48776 8.47593 5.48776 8.99H5.54441ZM5.83441 7.58L5.88628 7.60279C6.07669 7.16945 6.33912 6.79228 6.67367 6.47085L6.63441 6.43L6.59516 6.38914C6.24971 6.72105 5.9788 7.11055 5.78254 7.55721L5.83441 7.58ZM6.63441 6.43L6.67327 6.47123C7.01433 6.14985 7.41464 5.90035 7.8748 5.72286L7.85441 5.67L7.83403 5.61714C7.36086 5.79965 6.94784 6.05681 6.59556 6.38877L6.63441 6.43ZM7.85441 5.67L7.8748 5.72286C8.33446 5.54556 8.83083 5.45666 9.36441 5.45666V5.4V5.34334C8.818 5.34334 8.3077 5.43444 7.83403 5.61714L7.85441 5.67ZM9.36441 5.4V5.45666C9.7063 5.45666 10.0449 5.49938 10.3804 5.5849L10.3944 5.53L10.4084 5.4751C10.0639 5.38728 9.71586 5.34334 9.36441 5.34334V5.4ZM10.3944 5.53L10.3814 5.58515C10.7172 5.66416 11.0364 5.77934 11.3391 5.93067L11.3644 5.88L11.3898 5.82932C11.0791 5.67399 10.7516 5.55584 10.4074 5.47485L10.3944 5.53ZM11.3644 5.88L11.3391 5.93067C11.6415 6.08186 11.907 6.2623 12.1362 6.47181L12.1744 6.43L12.2126 6.38819C11.9751 6.17103 11.7007 5.98481 11.3898 5.82932L11.3644 5.88ZM12.1744 6.43L12.1307 6.39397L11.2407 7.47397L11.2844 7.51L11.3281 7.54603L12.2181 6.46603L12.1744 6.43ZM10.7444 8.98V9.03666H12.1144V8.98V8.92334H10.7444V8.98ZM12.1144 8.98H12.0578V11.69H12.1144H12.1711V8.98H12.1144ZM12.1144 11.69V11.6333H10.7444V11.69V11.7467H12.1144V11.69ZM10.7444 11.69H10.8011V8.98H10.7444H10.6878V11.69H10.7444Z" fill="white"/>
</svg>
