<svg width="18" height="18" viewBox="0 0 18 18" fill="none" xmlns="http://www.w3.org/2000/svg">
<rect width="18" height="18" rx="9" fill="#CB4670"/>
<path d="M5.77885 6.2H7.30885L9.02785 11.015L10.7558 6.2H12.2228L9.72085 12.5H8.25385L5.77885 6.2Z" fill="white"/>
<path d="M5.77885 6.2V6.14964H5.70496L5.73198 6.21841L5.77885 6.2ZM7.30885 6.2L7.35628 6.18307L7.34434 6.14964H7.30885V6.2ZM9.02785 11.015L8.98042 11.0319L9.02773 11.1644L9.07525 11.032L9.02785 11.015ZM10.7558 6.2V6.14964H10.7204L10.7084 6.18299L10.7558 6.2ZM12.2228 6.2L12.2697 6.21859L12.297 6.14964H12.2228V6.2ZM9.72085 12.5V12.5504H9.75504L9.76765 12.5186L9.72085 12.5ZM8.25385 12.5L8.20698 12.5184L8.21953 12.5504H8.25385V12.5ZM5.77885 6.2V6.25036H7.30885V6.2V6.14964H5.77885V6.2ZM7.30885 6.2L7.26142 6.21693L8.98042 11.0319L9.02785 11.015L9.07528 10.9981L7.35628 6.18307L7.30885 6.2ZM9.02785 11.015L9.07525 11.032L10.8033 6.21701L10.7558 6.2L10.7084 6.18299L8.98045 10.998L9.02785 11.015ZM10.7558 6.2V6.25036H12.2228V6.2V6.14964H10.7558V6.2ZM12.2228 6.2L12.176 6.18141L9.67404 12.4814L9.72085 12.5L9.76765 12.5186L12.2697 6.21859L12.2228 6.2ZM9.72085 12.5V12.4496H8.25385V12.5V12.5504H9.72085V12.5ZM8.25385 12.5L8.30072 12.4816L5.82572 6.18158L5.77885 6.2L5.73198 6.21841L8.20698 12.5184L8.25385 12.5Z" fill="white"/>
</svg>
